<svg width="24" height="24" viewBox="0 0 24 24" fill="none" xmlns="http://www.w3.org/2000/svg">
<path d="M7.5 3.75H4.5C4.08579 3.75 3.75 4.08579 3.75 4.5V19.5C3.75 19.9142 4.08579 20.25 4.5 20.25H7.5C7.91421 20.25 8.25 19.9142 8.25 19.5V4.5C8.25 4.08579 7.91421 3.75 7.5 3.75Z" stroke="#55524A" stroke-width="2" stroke-linecap="round" stroke-linejoin="round"/>
<path d="M3.75 7.5H8.25" stroke="#55524A" stroke-width="2" stroke-linecap="round" stroke-linejoin="round"/>
<path d="M12 3.75H9C8.58579 3.75 8.25 4.08579 8.25 4.5V19.5C8.25 19.9142 8.58579 20.25 9 20.25H12C12.4142 20.25 12.75 19.9142 12.75 19.5V4.5C12.75 4.08579 12.4142 3.75 12 3.75Z" stroke="#55524A" stroke-width="2" stroke-linecap="round" stroke-linejoin="round"/>
<path d="M8.25 16.5H12.75" stroke="#55524A" stroke-width="2" stroke-linecap="round" stroke-linejoin="round"/>
<path d="M16.4568 3.50449L13.5468 4.28449C13.145 4.39219 12.9066 4.8052 13.0143 5.20699L16.9143 19.757C17.022 20.1588 17.435 20.3972 17.8368 20.2895L20.7468 19.5095C21.1486 19.4018 21.387 18.9888 21.2793 18.587L17.3793 4.03699C17.2716 3.63521 16.8586 3.3968 16.4568 3.50449Z" stroke="#55524A" stroke-width="2" stroke-linecap="round" stroke-linejoin="round"/>
<path d="M16.0498 16.8L20.3998 15.6282" stroke="#55524A" stroke-width="2" stroke-linecap="round" stroke-linejoin="round"/>
<path d="M13.7246 8.1L18.0746 6.9375" stroke="#55524A" stroke-width="2" stroke-linecap="round" stroke-linejoin="round"/>
</svg>
