<svg width="32" height="32" viewBox="0 0 32 32" fill="none" xmlns="http://www.w3.org/2000/svg">
<path d="M28.0379 18.7876C27.9735 18.5798 27.8438 18.3984 27.6682 18.2701C27.4926 18.1417 27.2804 18.0734 27.0629 18.0751L26.7879 18.1251C24.9975 18.6192 23.108 18.6297 21.3123 18.1552C19.5165 17.6808 17.8787 16.7386 16.566 15.4246C15.2533 14.1106 14.3126 12.4719 13.8399 10.6757C13.3672 8.87946 13.3795 6.99 13.8754 5.20007C13.8999 5.12757 13.9126 5.05159 13.9129 4.97507C13.9248 4.81375 13.8968 4.65198 13.8316 4.50399C13.7663 4.35599 13.6656 4.2263 13.5385 4.12631C13.4113 4.02632 13.2616 3.9591 13.1024 3.93054C12.9432 3.90199 12.7794 3.91299 12.6254 3.96257C10.5239 4.55159 8.61327 5.68057 7.08353 7.2372C5.55379 8.79383 4.45827 10.7238 3.90594 12.8353C3.35361 14.9467 3.36373 17.1659 3.93528 19.2723C4.50684 21.3786 5.61991 23.2985 7.16377 24.8411C8.70764 26.3837 10.6285 27.4953 12.7353 28.0651C14.842 28.6349 17.0613 28.6433 19.1723 28.0892C21.2832 27.5352 23.2124 26.4381 24.7678 24.9071C26.3231 23.3761 27.4506 21.4645 28.0379 19.3626C28.1008 19.1761 28.1008 18.9741 28.0379 18.7876V18.7876Z" fill="#55524A"/>
</svg>
