<svg width="28" height="27" viewBox="0 0 28 27" fill="none" xmlns="http://www.w3.org/2000/svg">
<path d="M27.2862 12.3563L21.6612 17.21L23.3749 24.4688C23.4695 24.8628 23.4451 25.2761 23.305 25.6563C23.1648 26.0365 22.9151 26.3666 22.5873 26.605C22.2596 26.8433 21.8686 26.9792 21.4637 26.9955C21.0588 27.0117 20.6582 26.9076 20.3124 26.6963L13.9999 22.8113L7.68367 26.6963C7.33796 26.9064 6.9378 27.0095 6.5336 26.9927C6.12939 26.9758 5.7392 26.8398 5.41217 26.6016C5.08514 26.3634 4.83589 26.0339 4.6958 25.6543C4.55571 25.2748 4.53105 24.8623 4.62492 24.4688L6.34492 17.21L0.719922 12.3563C0.414045 12.0919 0.192828 11.7433 0.0839002 11.354C-0.0250279 10.9646 -0.0168401 10.5518 0.107441 10.1671C0.231722 9.78242 0.466588 9.44284 0.782708 9.19082C1.09883 8.93879 1.48219 8.78549 1.88492 8.75004L9.25992 8.15504L12.1049 1.27004C12.2589 0.894813 12.521 0.573852 12.8579 0.347964C13.1948 0.122076 13.5912 0.00146484 13.9968 0.00146484C14.4024 0.00146484 14.7988 0.122076 15.1357 0.347964C15.4726 0.573852 15.7347 0.894813 15.8887 1.27004L18.7324 8.15504L26.1074 8.75004C26.511 8.78417 26.8954 8.93662 27.2127 9.1883C27.53 9.43997 27.7659 9.77968 27.891 10.1649C28.016 10.55 28.0246 10.9636 27.9157 11.3536C27.8068 11.7436 27.5852 12.0929 27.2787 12.3575L27.2862 12.3563Z" fill="#373C44"/>
</svg>
