<svg width="28" height="27" viewBox="0 0 28 27" fill="none" xmlns="http://www.w3.org/2000/svg">
<path d="M27.8976 10.1573C27.7726 9.77298 27.5366 9.43424 27.2194 9.18377C26.9022 8.9333 26.5179 8.78231 26.1151 8.74983L18.7401 8.15483L15.8926 1.26858C15.7386 0.893348 15.4765 0.572387 15.1396 0.346499C14.8027 0.120611 14.4063 0 14.0007 0C13.5951 0 13.1987 0.120611 12.8618 0.346499C12.5249 0.572387 12.2628 0.893348 12.1088 1.26858L9.26383 8.15358L1.88508 8.74983C1.48156 8.78395 1.09707 8.93641 0.779802 9.18808C0.462533 9.43976 0.226591 9.77947 0.101535 10.1646C-0.0235211 10.5498 -0.0321284 10.9633 0.0767912 11.3534C0.185711 11.7434 0.407313 12.0927 0.713834 12.3573L6.33883 17.2111L4.62508 24.4686C4.53053 24.8626 4.55488 25.2758 4.69506 25.6561C4.83523 26.0363 5.08495 26.3664 5.41266 26.6048C5.74038 26.8431 6.13138 26.979 6.53628 26.9953C6.94119 27.0115 7.34182 26.9074 7.68758 26.6961L14.0001 22.8111L20.3163 26.6961C20.662 26.9062 21.0622 27.0093 21.4664 26.9925C21.8706 26.9756 22.2608 26.8395 22.5878 26.6014C22.9149 26.3632 23.1641 26.0336 23.3042 25.6541C23.4443 25.2746 23.469 24.8621 23.3751 24.4686L21.6551 17.2098L27.2801 12.3561C27.5891 12.0919 27.8127 11.7419 27.9226 11.3504C28.0326 10.959 28.0238 10.5438 27.8976 10.1573ZM25.9801 10.8411L19.8926 16.0911C19.7538 16.2107 19.6505 16.3662 19.5941 16.5406C19.5376 16.715 19.5302 16.9015 19.5726 17.0798L21.4326 24.9298C21.4374 24.9406 21.4379 24.9529 21.4339 24.9641C21.43 24.9752 21.4219 24.9844 21.4113 24.9898C21.3888 25.0073 21.3826 25.0036 21.3638 24.9898L14.5238 20.7836C14.3661 20.6874 14.1848 20.6368 14.0001 20.6373V1.99983C14.0301 1.99983 14.0338 2.00983 14.0438 2.03233L17.1251 9.48233C17.1954 9.65262 17.3114 9.80016 17.4603 9.90869C17.6092 10.0172 17.7852 10.0825 17.9688 10.0973L25.9576 10.7423C25.9776 10.7423 25.9888 10.7423 26.0001 10.7786C26.0113 10.8148 26.0001 10.8286 25.9801 10.8411Z" fill="#373C44"/>
</svg>
