<svg width="28" height="27" viewBox="0 0 28 27" fill="none" xmlns="http://www.w3.org/2000/svg">
<path d="M14.0002 21.6363L20.8402 25.8426C21.0177 25.9503 21.2231 26.003 21.4305 25.994C21.6379 25.985 21.838 25.9148 22.0055 25.7921C22.173 25.6694 22.3004 25.4999 22.3715 25.3048C22.4427 25.1098 22.4544 24.898 22.4052 24.6963L20.5452 16.8476L26.6327 11.5976C26.7879 11.4613 26.8998 11.2825 26.9546 11.0834C27.0094 10.8842 27.0046 10.6734 26.941 10.4769C26.8773 10.2804 26.7575 10.1069 26.5963 9.97771C26.4351 9.84854 26.2396 9.76941 26.034 9.75007L18.0452 9.10007L14.9677 1.65007C14.8893 1.45787 14.7553 1.29339 14.583 1.17761C14.4107 1.06183 14.2078 1 14.0002 1C13.7926 1 13.5897 1.06183 13.4174 1.17761C13.2451 1.29339 13.1112 1.45787 13.0327 1.65007L9.95522 9.10007L1.96647 9.75007C1.75943 9.76825 1.56233 9.84704 1.39981 9.97659C1.23728 10.1061 1.11654 10.2807 1.05265 10.4785C0.988773 10.6763 0.984588 10.8885 1.04062 11.0886C1.09666 11.2888 1.21043 11.468 1.36772 11.6038L7.45522 16.8538L5.59522 24.6963C5.54605 24.898 5.55777 25.1098 5.62891 25.3048C5.70005 25.4999 5.82742 25.6694 5.99491 25.7921C6.1624 25.9148 6.3625 25.985 6.56991 25.994C6.77733 26.003 6.98275 25.9503 7.16022 25.8426L14.0002 21.6363Z" stroke="#373C44" stroke-width="2" stroke-linecap="round" stroke-linejoin="round"/>
</svg>
